# xmcd CD database file
#
# Track frame offsets:
#	150
#	12517
#	22515
#	33375
#	44947
#	58062
#	69932
#	81065
#	92952
#	105477
#	119032
#	131897
#	144447
#	156775
#	168512
#
# Disc length: 2405 seconds
#
# Revision: 0
# Processed by: cddbd v1.5.2PL0 Copyright (c) Steve Scherf et al.
# Submitted via: CDex 1.77
#
DISCID=cd09630f
DTITLE=Hank Williams - Sings
DYEAR=1951
DGENRE=Country
TTITLE0=I'm sorry for you my friend
TTITLE1=Honky Tonk blues
TTITLE2=Let's turn back the years
TTITLE3=Window shopping
TTITLE4=Jambalaya (on the Bayou)
TTITLE5=Settin' the woods on fire
TTITLE6=I'll never get out of this world alive
TTITLE7=You win again
TTITLE8=I won't  be home no more
TTITLE9=Be careful of stones that you throw
TTITLE10=Please make up your mind
TTITLE11=I could never be ashamed of you
TTITLE12=Your cheatin' heart
TTITLE13=Kaw-liga
TTITLE14=Take these chains from my heart
EXTD=YEAR: 1951
EXTT0=
EXTT1=
EXTT2=
EXTT3=
EXTT4=
EXTT5=
EXTT6=
EXTT7=
EXTT8=
EXTT9=
EXTT10=
EXTT11=
EXTT12=
EXTT13=
EXTT14=
PLAYORDER=
